<svg width="115" height="80" viewBox="0 0 115 80" fill="none" xmlns="http://www.w3.org/2000/svg">
<rect x="0.5" y="0.5" width="114" height="79" rx="9.5" fill="#E12626"/>
<rect x="0.5" y="0.5" width="114" height="79" rx="9.5" stroke="#E8E8E8"/>
<rect x="0.5" y="0.5" width="114" height="79" rx="9.5" stroke="#EDEDED"/>
<path d="M18.9798 34.1569C18.2972 33.4641 17.5537 32.9414 16.7493 32.5963C15.9474 32.2461 15.0821 32.0736 14.1686 32.071C12.1766 32.071 10.4866 32.8323 9.09095 34.3498C7.69783 35.8698 7.00253 37.8186 7 40.1963C7 42.4903 7.71813 44.4112 9.15692 45.9515C10.5957 47.4969 12.301 48.2708 14.2726 48.2708C15.1532 48.2721 15.9703 48.1136 16.7214 47.7988C17.4751 47.4816 18.2262 46.9665 18.9747 46.2458V47.8775H22.8268V32.4745H18.9798V34.1569ZM17.9597 43.4596C17.168 44.3071 16.1707 44.7259 14.9679 44.7284C13.8032 44.7271 12.8212 44.297 12.0269 43.4342C11.2301 42.574 10.8317 41.4752 10.8317 40.143C10.8317 38.8159 11.225 37.7323 12.0066 36.8848C12.7907 36.0372 13.7727 35.6185 14.9578 35.6185C16.1707 35.6185 17.1731 36.0347 17.9648 36.8645C18.7565 37.6993 19.0128 38.6484 19.0103 39.9908C19.0103 41.3636 18.754 42.6146 17.9597 43.4596ZM44.9162 34.1569C44.2336 33.4641 43.4876 32.9414 42.6883 32.5963C41.8813 32.2461 41.0211 32.0736 40.1025 32.071C38.1156 32.071 36.4205 32.8323 35.0274 34.3498C33.6342 35.8698 32.9389 37.8186 32.9364 40.1963C32.9339 42.4903 33.652 44.4112 35.0933 45.9515C36.5321 47.4969 38.2374 48.2708 40.2116 48.2708C41.0896 48.2721 41.9067 48.1136 42.6553 47.7988C43.4089 47.4816 44.16 46.9665 44.9086 46.2458V47.8775H48.7606V32.4745H44.9162V34.1569ZM43.8961 43.4596C43.1044 44.3071 42.1046 44.7259 40.9069 44.7284C39.7396 44.7271 38.7576 44.297 37.9608 43.4342C37.164 42.574 36.7656 41.4752 36.7681 40.143C36.7707 38.8159 37.1589 37.7323 37.943 36.8848C38.7271 36.0372 39.7092 35.6185 40.8942 35.6185C42.1046 35.6185 43.107 36.0347 43.9012 36.8645C44.6929 37.6993 44.9467 38.6484 44.9441 39.9908C44.9441 41.3636 44.6904 42.6146 43.8961 43.4596ZM71.9387 32.8501C71.1115 32.34 70.1548 32.0862 69.0637 32.0862C68.008 32.085 67.0412 32.3223 66.1505 32.7993C65.2624 33.2738 64.5138 33.9666 63.8997 34.8827C63.4328 33.9666 62.8137 33.2713 62.0448 32.7968C61.2708 32.3197 60.408 32.0812 59.4488 32.0787C58.4998 32.0787 57.6243 32.2587 56.8199 32.6217C56.0155 32.982 55.2847 33.5276 54.6275 34.2609V32.4745H50.7729L50.7678 47.8775H54.6198L54.6223 41.0438C54.6248 39.567 54.7543 38.4835 55.0131 37.7958C55.2745 37.1081 55.6652 36.5752 56.188 36.192C56.7132 35.8139 57.2943 35.6211 57.9363 35.6211C58.5098 35.6223 59.0021 35.7734 59.4081 36.0753C59.8141 36.3773 60.1161 36.8366 60.3191 37.4532C60.5221 38.0698 60.6236 39.0646 60.6236 40.4424L60.6161 47.8775H64.4732V40.95C64.4783 39.4807 64.6051 38.4149 64.8589 37.7526C65.1152 37.0878 65.506 36.5701 66.0287 36.192C66.5489 35.8165 67.1452 35.6287 67.8075 35.6287C68.6754 35.6287 69.3224 35.9383 69.7589 36.5524C70.1954 37.1715 70.4111 38.3515 70.4111 40.0897L70.4059 47.8775H74.2579L74.2629 38.8565C74.2629 37.0066 74.0828 35.6693 73.7224 34.8497C73.3621 34.0275 72.7683 33.3601 71.9385 32.8501H71.9387ZM87.7095 43.3378C86.6792 44.363 85.446 44.8756 84.0122 44.8756C82.8094 44.8743 81.8274 44.5431 81.0509 43.8885C80.2769 43.2338 79.8024 42.3507 79.6223 41.2392L91.9802 41.2468L91.9954 40.5134C91.9954 37.9759 91.2418 35.9357 89.7294 34.3852C88.2195 32.8398 86.2555 32.0659 83.8397 32.0633C81.5661 32.0633 79.673 32.8373 78.1683 34.3928C76.6584 35.9433 75.9047 37.8947 75.9047 40.2445C75.9022 42.5409 76.6584 44.4467 78.1657 45.9717C79.673 47.4993 81.632 48.2606 84.0326 48.2606C85.5805 48.2619 86.9152 47.9866 88.0444 47.4334C89.1686 46.8827 90.1354 46.0275 90.9423 44.8755L87.7095 43.3378ZM81.2133 36.258C82.0228 35.6617 82.9642 35.3648 84.0351 35.3673C85.0273 35.3673 85.8951 35.6312 86.6386 36.1616C87.3897 36.6945 87.8896 37.3821 88.1434 38.2297L79.8024 38.2246C80.2338 37.2858 80.7058 36.6285 81.2133 36.258V36.258ZM101.123 39.7269L106.33 32.472H101.938L98.923 36.6717L95.8982 32.472H91.4371L96.6975 39.77L90.8814 47.8775H95.2739L98.895 42.8278L102.536 47.8775H107L101.123 39.7269ZM32.0988 32C31.3858 32 30.7641 32.1344 30.2439 32.3959C29.7313 32.6521 29.1426 33.1216 28.4802 33.8093V32.4745H24.8033V47.8775H28.6553L28.6528 39.8664C28.6528 36.9305 29.4648 35.4587 31.4289 35.4587C31.7689 35.4587 32.1166 35.5324 32.4668 35.6643C33.0986 34.6061 33.8294 33.6114 34.6465 32.6953C33.766 32.2436 32.9159 32 32.0988 32" fill="white"/>
</svg>
