<svg width="115" height="80" viewBox="0 0 115 80" fill="none" xmlns="http://www.w3.org/2000/svg">
<rect x="0.5" y="0.5" width="114" height="79" rx="9.5" fill="url(#paint0_linear)"/>
<rect x="0.5" y="0.5" width="114" height="79" rx="9.5" stroke="#E8E8E8"/>
<rect x="0.5" y="0.5" width="114" height="79" rx="9.5" stroke="#EDEDED"/>
<path d="M49.9169 42.6914H11V55.656H49.9169V42.6914Z" fill="#84B740"/>
<path d="M49.9169 25H11V37.9761H49.9169V25Z" fill="#259BD6"/>
<path d="M88.8337 53.0193L88.6603 53.054C88.0595 53.1695 87.84 53.2157 87.4009 53.2157C86.384 53.2157 85.1823 52.6958 85.1823 50.2461C85.1823 48.9866 85.3903 47.3112 87.2853 47.3112H87.2969C87.6204 47.3343 87.9902 47.369 88.6835 47.5769L88.8337 47.6232V53.0193ZM89.1457 40.8058L88.8337 40.8636V45.3931L88.5564 45.3122L88.4755 45.2891C88.1635 45.1966 87.4471 44.9887 86.7538 44.9887C82.9638 44.9887 82.1665 47.8543 82.1665 50.2577C82.1665 53.5508 84.0153 55.4458 87.2391 55.4458C88.6026 55.4458 89.6078 55.3072 90.6247 54.9721C91.5606 54.6716 91.8957 54.2441 91.8957 53.3313V40.332C90.9944 40.4938 90.0585 40.6556 89.1457 40.8058Z" fill="#27292D"/>
<path d="M100.1 53.1029L99.9379 53.1491L99.3602 53.2993C98.8171 53.438 98.3318 53.5189 97.962 53.5189C97.0723 53.5189 96.5408 53.0798 96.5408 52.3287C96.5408 51.8434 96.7603 51.023 98.2162 51.023H100.1V53.1029ZM98.7709 44.9336C97.6038 44.9336 96.4021 45.1416 94.9115 45.6038L93.9409 45.8926L94.2645 48.0881L95.212 47.7761C96.2057 47.4526 97.4421 47.2446 98.3664 47.2446C98.7824 47.2446 100.053 47.2446 100.053 48.6196V49.2205H98.2856C95.0618 49.2205 93.5712 50.2488 93.5712 52.4558C93.5712 54.3393 94.9462 55.4717 97.2572 55.4717C97.9736 55.4717 98.9673 55.333 99.8224 55.125L99.8686 55.1134L99.9148 55.125L100.204 55.1712C101.105 55.333 102.041 55.4948 102.954 55.6681V48.4578C102.954 46.1237 101.544 44.9336 98.7709 44.9336Z" fill="#27292D"/>
<path d="M77.6486 53.1029L77.4869 53.1491L76.9091 53.2993C76.366 53.438 75.8923 53.5189 75.511 53.5189C74.6212 53.5189 74.0897 53.0798 74.0897 52.3287C74.0897 51.8434 74.3093 51.023 75.7536 51.023H77.6371L77.6486 53.1029ZM76.3314 44.9336C75.1528 44.9336 73.9626 45.1416 72.472 45.6038L71.5014 45.8926L71.825 48.0881L72.7725 47.7761C73.7662 47.4526 75.0026 47.2446 75.927 47.2446C76.3429 47.2446 77.614 47.2446 77.614 48.6196V49.2205H75.8461C72.6223 49.2205 71.1201 50.2488 71.1201 52.4558C71.1201 54.3393 72.4951 55.4717 74.8177 55.4717C75.5341 55.4717 76.5278 55.333 77.3829 55.125L77.4291 55.1134L77.4753 55.125L77.7526 55.1712C78.6655 55.333 79.5898 55.4948 80.5027 55.6796V48.4694C80.5142 46.1122 79.1045 44.9336 76.3314 44.9336Z" fill="#27292D"/>
<path d="M65.4813 44.953C64.0138 44.953 62.8006 45.4383 62.3499 45.6463L62.2344 45.704L62.1304 45.6231C61.5064 45.1725 60.5936 44.9414 59.3226 44.9414C58.2017 44.9414 57.1502 45.1032 56.0063 45.4383C55.0241 45.7387 54.6428 46.2124 54.6428 47.1022V55.3408H57.7164V47.7261L57.8666 47.6799C58.4906 47.4719 58.8604 47.4373 59.2186 47.4373C60.1083 47.4373 60.5589 47.911 60.5589 48.8354V55.3524H63.5863V48.7083C63.5863 48.3154 63.5054 48.0843 63.4939 48.0381L63.3899 47.8417L63.5979 47.7492C64.0601 47.5413 64.5685 47.4373 65.1 47.4373C65.7124 47.4373 66.4404 47.6799 66.4404 48.8354V55.3524H69.4562V48.535C69.4562 46.12 68.162 44.953 65.4813 44.953Z" fill="#27292D"/>
<path d="M97.8349 33.4582C97.3843 33.4582 96.6332 33.412 96.0439 33.2964L95.8706 33.2617V28.8131C95.8706 28.4434 95.8013 28.2123 95.7897 28.1776L95.6973 27.9927L95.8937 27.9118C95.9399 27.8887 95.9862 27.8772 96.0439 27.8541L96.0786 27.8309C96.1479 27.8078 96.2173 27.7847 96.2866 27.7616C96.3213 27.7501 96.3444 27.7385 96.3675 27.7385C97.0492 27.5536 97.6732 27.5767 97.9505 27.5536H97.962C99.8455 27.5536 100.065 29.2291 100.065 30.4886C100.053 32.9382 98.8402 33.4582 97.8349 33.4582ZM97.8234 25C97.8003 25 97.7656 25 97.7425 25C95.9746 25 94.1605 25.4853 93.5134 26.4328C93.1668 26.895 92.9703 27.4727 92.9588 28.1545V32.7418C92.9588 33.1346 92.8779 33.2849 92.8663 33.3195L92.7623 33.516H87.1813V30.3268H87.1698C87.1005 26.9643 85.113 25.1155 82.2359 25.1155H81.9008H79.428C79.3125 25.9359 79.22 26.5137 79.1045 27.3341H81.9008C83.3682 27.3341 84.1424 28.582 84.1424 30.5001V33.7124L83.946 33.6084C83.9113 33.5968 83.6687 33.516 83.2873 33.516H78.4574C78.365 34.1284 78.2494 34.9256 78.1223 35.7229H92.9703C93.4788 35.6189 94.0681 35.5265 94.5765 35.4456C95.3275 35.8154 96.7257 36.0118 97.6847 36.0118C100.909 36.0118 103 33.851 103 30.5232C102.988 27.2301 100.966 25.0693 97.8234 25Z" fill="#27292D"/>
<path d="M71.7903 37.0728H71.9289C75.1527 37.0728 76.6549 36.0097 76.6549 33.3867C76.6549 31.5033 75.2798 30.0012 72.9689 30.0012H69.9993C69.1095 30.0012 68.578 29.4927 68.578 28.6377C68.578 28.0599 68.7976 27.3435 70.2535 27.3435H76.7473C76.886 26.5 76.9553 25.9685 77.0824 25.125H70.3344C67.1914 25.125 65.6084 26.4423 65.6084 28.6377C65.6084 30.81 66.9834 31.9424 69.2944 31.9424H72.264C73.1537 31.9424 73.6853 32.6472 73.6853 33.3867C73.6853 33.872 73.4657 34.8773 72.0214 34.8773H71.5245L62.0148 34.8542H60.2816C58.8141 34.8542 57.7857 34.0223 57.7857 32.0926V30.7638C57.7857 28.7532 58.583 27.5053 60.2816 27.5053H63.101C63.2281 26.6502 63.309 26.1072 63.4245 25.2983H59.9118H59.5768C56.6996 25.2983 54.7122 27.228 54.6428 30.5905V30.7176V32.0926C54.7122 35.4551 56.6996 37.0612 59.5768 37.0612H59.9118H62.3846L67.5381 37.0728H70.6117H71.7903Z" fill="#27292D"/>
<defs>
<linearGradient id="paint0_linear" x1="57" y1="5" x2="57" y2="80" gradientUnits="userSpaceOnUse">
<stop stop-color="#F5F5F5"/>
<stop offset="1" stop-color="white"/>
</linearGradient>
</defs>
</svg>
