<svg width="115" height="80" viewBox="0 0 115 80" fill="none" xmlns="http://www.w3.org/2000/svg">
<rect x="0.5" y="0.5" width="114" height="79" rx="9.5" fill="#6772E5"/>
<rect x="0.5" y="0.5" width="114" height="79" rx="9.5" stroke="#E8E8E8"/>
<rect x="0.5" y="0.5" width="114" height="79" rx="9.5" stroke="#EDEDED"/>
<path fill-rule="evenodd" clip-rule="evenodd" d="M103 40.7787C103 34.2364 99.8311 29.0742 93.7744 29.0742C87.6922 29.0742 84.0122 34.2364 84.0122 40.7276C84.0122 48.4198 88.3566 52.3042 94.5922 52.3042C97.6333 52.3042 99.9333 51.6142 101.671 50.6431V45.532C99.9333 46.4009 97.94 46.9376 95.41 46.9376C92.9311 46.9376 90.7333 46.0687 90.4522 43.0531H102.949C102.949 42.7209 103 41.392 103 40.7787ZM90.3755 38.3509C90.3755 35.4631 92.1389 34.262 93.7489 34.262C95.3078 34.262 96.9689 35.4631 96.9689 38.3509H90.3755Z" fill="white"/>
<path fill-rule="evenodd" clip-rule="evenodd" d="M74.1478 29.0742C71.6433 29.0742 70.0333 30.2498 69.1389 31.0676L68.8067 29.4831H63.1844V59.2809L69.5733 57.9264L69.5989 50.6942C70.5189 51.3587 71.8733 52.3042 74.1222 52.3042C78.6967 52.3042 82.8622 48.6242 82.8622 40.5231C82.8367 33.112 78.62 29.0742 74.1478 29.0742ZM72.6144 46.682C71.1067 46.682 70.2122 46.1453 69.5989 45.4809L69.5733 35.9998C70.2378 35.2587 71.1578 34.7476 72.6144 34.7476C74.94 34.7476 76.55 37.3542 76.55 40.702C76.55 44.1264 74.9656 46.682 72.6144 46.682Z" fill="white"/>
<path fill-rule="evenodd" clip-rule="evenodd" d="M60.8078 26.1878V21L54.3933 22.3544V27.5678L60.8078 26.1878Z" fill="white"/>
<path d="M60.8078 29.5098H54.3933V51.8709H60.8078V29.5098Z" fill="white"/>
<path fill-rule="evenodd" clip-rule="evenodd" d="M47.5189 31.4014L47.11 29.5103H41.59V51.8714H47.9789V36.7169C49.4866 34.7491 52.0422 35.1069 52.8344 35.388V29.5103C52.0166 29.2036 49.0266 28.6414 47.5189 31.4014Z" fill="white"/>
<path fill-rule="evenodd" clip-rule="evenodd" d="M34.7411 23.9648L28.5055 25.2937L28.48 45.7637C28.48 49.546 31.3166 52.3315 35.0989 52.3315C37.1944 52.3315 38.7278 51.9482 39.5711 51.4882V46.3004C38.7533 46.6326 34.7155 47.8082 34.7155 44.026V34.9537H39.5711V29.5104H34.7155L34.7411 23.9648Z" fill="white"/>
<path fill-rule="evenodd" clip-rule="evenodd" d="M17.4656 35.9998C17.4656 35.0031 18.2833 34.6198 19.6378 34.6198C21.58 34.6198 24.0333 35.2076 25.9756 36.2553V30.2498C23.8544 29.4064 21.7589 29.0742 19.6378 29.0742C14.45 29.0742 11 31.7831 11 36.3064C11 43.3598 20.7111 42.2353 20.7111 45.2764C20.7111 46.452 19.6889 46.8353 18.2578 46.8353C16.1367 46.8353 13.4278 45.9664 11.2811 44.7909V50.8731C13.6578 51.8953 16.06 52.3298 18.2578 52.3298C23.5733 52.3298 27.2278 49.6975 27.2278 45.1231C27.2022 37.5075 17.4656 38.862 17.4656 35.9998Z" fill="white"/>
</svg>
