<svg width="115" height="80" viewBox="0 0 115 80" fill="none" xmlns="http://www.w3.org/2000/svg">
<rect x="0.5" y="0.5" width="114" height="79" rx="9.5" fill="url(#paint0_linear)"/>
<rect x="0.5" y="0.5" width="114" height="79" rx="9.5" stroke="#E8E8E8"/>
<rect x="0.5" y="0.5" width="114" height="79" rx="9.5" stroke="#EDEDED"/>
<path d="M27.9961 10H52.2069C55.5865 10 57.6885 12.7547 56.9001 16.1455L45.6282 64.5399C44.8328 67.919 41.449 70.676 38.067 70.676H13.8586C10.4837 70.676 8.37699 67.919 9.16538 64.5399L20.442 16.1455C21.2304 12.7547 24.6123 10 27.9961 10Z" fill="#E21836"/>
<path d="M50.1922 10H78.034C81.413 10 79.8893 12.7547 79.0944 16.1455L67.8243 64.5399C67.0336 67.919 67.2803 70.676 63.8942 70.676H36.0524C32.6663 70.676 30.5707 67.919 31.3662 64.5399L42.6357 16.1455C43.4359 12.7547 46.8108 10 50.1922 10Z" fill="#00447C"/>
<path d="M76.9297 10H101.14C104.525 10 106.627 12.7547 105.832 16.1455L94.5619 64.5399C93.7664 67.919 90.3803 70.676 86.9965 70.676H62.7969C59.4108 70.676 57.3106 67.919 58.1037 64.5399L69.3756 16.1455C70.164 12.7547 73.5436 10 76.9297 10Z" fill="#007B84"/>
<path d="M34.319 25.5093C31.8293 25.5347 31.094 25.5093 30.8592 25.4538C30.7689 25.8828 29.0888 33.6329 29.0841 33.6393C28.7224 35.2073 28.4592 36.325 27.5651 37.0467C27.0576 37.4663 26.4652 37.6687 25.7783 37.6687C24.6741 37.6687 24.0309 37.1205 23.9229 36.0807L23.9023 35.7236C23.9023 35.7236 24.2386 33.6234 24.2386 33.6116C24.2386 33.6116 26.0019 26.5491 26.3176 25.6155C26.3341 25.5624 26.3389 25.5347 26.343 25.5093C22.9109 25.5394 22.3025 25.5093 22.2606 25.4538C22.2375 25.5299 22.1526 25.9678 22.1526 25.9678L20.3521 33.9279L20.1975 34.603L19.8983 36.8112C19.8983 37.4663 20.027 38.0009 20.2831 38.4529C21.1033 39.8863 23.4432 40.1011 24.7668 40.1011C26.4722 40.1011 28.072 39.7388 29.1531 39.0773C31.0297 37.9685 31.5207 36.2353 31.9586 34.6951L32.1616 33.9049C32.1616 33.9049 33.978 26.5697 34.2866 25.6155C34.2984 25.5624 34.3031 25.5347 34.319 25.5093ZM40.4992 31.4266C40.0613 31.4266 39.2611 31.5329 38.5423 31.8852C38.2815 32.0191 38.0348 32.1737 37.7746 32.3277L38.0095 31.4797L37.8808 31.3369C36.3565 31.6456 36.0155 31.6869 34.6074 31.8852L34.4894 31.9636C34.3259 33.3191 34.1808 34.3383 33.5747 37.0027C33.344 37.9846 33.1044 38.976 32.8642 39.9556L32.9291 40.0801C34.372 40.004 34.8098 40.004 36.0638 40.0247L36.1653 39.9143C36.3247 39.0982 36.3453 38.907 36.6982 37.2541C36.864 36.4704 37.2099 34.7484 37.3804 34.1353C37.6938 33.9901 38.003 33.8473 38.298 33.8473C39.0009 33.8473 38.9153 34.4604 38.8882 34.7047C38.8581 35.1149 38.6019 36.4544 38.3393 37.6046L38.1641 38.347C38.0419 38.8952 37.908 39.4281 37.7858 39.9716L37.8389 40.0801C39.2611 40.004 39.6948 40.004 40.9093 40.0247L41.0521 39.9143C41.2716 38.6397 41.336 38.2986 41.7254 36.4426L41.9214 35.5899C42.302 33.9211 42.4932 33.0748 42.2052 32.3856C41.9007 31.6131 41.1701 31.4266 40.4992 31.4266ZM47.4031 33.1739C46.6472 33.3191 46.165 33.4159 45.6858 33.4784C45.2108 33.5545 44.7476 33.6236 44.017 33.7251L43.9592 33.7776L43.9061 33.8195C43.8299 34.3636 43.7768 34.8339 43.6759 35.3869C43.5903 35.9587 43.4587 36.6084 43.2445 37.542C43.0787 38.2566 42.9931 38.5056 42.8987 38.757C42.8067 39.0084 42.7052 39.2527 42.5187 39.9556L42.5624 40.0205L42.5989 40.0801C43.2817 40.0476 43.7284 40.0246 44.1875 40.0205C44.6461 40.0039 45.1211 40.0205 45.8564 40.0246L45.9207 39.9721L45.9898 39.9142C46.096 39.2805 46.1119 39.1099 46.1768 38.8007C46.2412 38.469 46.3521 38.0099 46.6241 36.7837C46.7528 36.2077 46.8962 35.6335 47.0295 35.0458C47.1682 34.4604 47.3134 33.8838 47.4515 33.3079L47.4308 33.2382L47.4031 33.1739ZM47.4192 30.818C46.7323 30.4126 45.5267 30.5413 44.7153 31.1013C43.9062 31.6501 43.8142 32.4291 44.4987 32.8398C45.1738 33.234 46.3841 33.1166 47.1885 32.5518C47.9957 31.9912 48.0966 31.2193 47.4192 30.818ZM51.5733 40.2071C52.9631 40.2071 54.3876 39.8241 55.4599 38.6876C56.2848 37.7658 56.6631 36.3944 56.7941 35.8296C57.2208 33.9578 56.8885 33.0838 56.4713 32.5515C55.8375 31.7401 54.7175 31.4799 53.5555 31.4799C52.8568 31.4799 51.1927 31.5489 49.8927 32.7474C48.9591 33.612 48.5277 34.7851 48.2675 35.9099C48.0049 37.0559 47.7027 39.1189 49.6 39.8867C50.1854 40.1381 51.0292 40.2071 51.5733 40.2071ZM51.4648 35.9954C51.7852 34.578 52.1635 33.3883 53.1289 33.3883C53.8854 33.3883 53.9403 34.2735 53.6039 35.6957C53.5438 36.0114 53.2676 37.1851 52.894 37.685C52.6332 38.0538 52.3246 38.2774 51.9835 38.2774C51.882 38.2774 51.2783 38.2774 51.2688 37.381C51.2641 36.9385 51.3544 36.4864 51.4648 35.9954ZM60.2682 40.0248L60.3767 39.9145C60.5308 39.0984 60.5561 38.9066 60.8972 37.2542C61.0678 36.4706 61.4207 34.7486 61.5865 34.1355C61.9004 33.9897 62.2043 33.8469 62.5088 33.8469C63.2069 33.8469 63.122 34.46 63.0942 34.7043C63.0688 35.1151 62.8127 36.454 62.5454 37.6042L62.3796 38.3465C62.2527 38.8954 62.1146 39.4276 61.9925 39.9717L62.0456 40.0803C63.4725 40.0042 63.8897 40.0042 65.1113 40.0248L65.2588 39.9145C65.473 38.6392 65.5308 38.2982 65.9321 36.4428L66.1233 35.5895C66.5057 33.9207 66.6993 33.075 66.416 32.3858C66.1027 31.6133 65.3674 31.4268 64.7058 31.4268C64.2674 31.4268 63.4631 31.5324 62.7484 31.8853C62.4929 32.0193 62.2368 32.1733 61.9854 32.3279L62.2043 31.4799L62.0869 31.3365C60.5632 31.6457 60.215 31.6871 58.8088 31.8853L58.7008 31.9638C58.5303 33.3193 58.3916 34.3379 57.7855 37.0028C57.5548 37.9848 57.3152 38.9762 57.0756 39.9558L57.1399 40.0803C58.5851 40.0042 59.0165 40.0042 60.2682 40.0248ZM70.7519 40.08C70.8416 39.6421 71.3745 37.0468 71.3792 37.0468C71.3792 37.0468 71.833 35.1425 71.8607 35.0734C71.8607 35.0734 72.0036 34.8752 72.1464 34.7967H72.3564C74.3387 34.7967 76.577 34.7967 78.3314 33.5061C79.5252 32.6209 80.3413 31.3138 80.7054 29.7252C80.7999 29.3357 80.8695 28.8725 80.8695 28.4092C80.8695 27.8008 80.7473 27.1989 80.3944 26.7286C79.4998 25.4769 77.7183 25.4539 75.6617 25.4445C75.6552 25.4445 74.6479 25.4539 74.6479 25.4539C72.0154 25.4864 70.9596 25.4769 70.5259 25.4238C70.4893 25.6156 70.4203 25.9567 70.4203 25.9567C70.4203 25.9567 69.4772 30.3271 69.4772 30.3342C69.4772 30.3342 67.2206 39.6262 67.1144 40.0641C69.4129 40.0363 70.3553 40.0363 70.7519 40.08V40.08ZM72.4992 32.3164C72.4992 32.3164 73.5019 27.9548 73.4971 27.9714L73.5296 27.7477L73.5438 27.5772L73.9445 27.6185C73.9445 27.6185 76.0122 27.7961 76.0606 27.8008C76.8767 28.1165 77.2131 28.9303 76.9782 29.9925C76.764 30.9633 76.1344 31.7794 75.3253 32.1736C74.6591 32.5076 73.8429 32.5353 73.002 32.5353H72.4579L72.4992 32.3164ZM78.7418 36.0762C78.4768 37.2057 78.1723 39.2688 80.0601 40.0041C80.662 40.2602 81.2014 40.3363 81.7496 40.3086C82.3285 40.2773 82.8649 39.987 83.3618 39.5692C83.3169 39.7409 83.2721 39.9126 83.2273 40.0849L83.3128 40.1953C84.6707 40.138 85.092 40.138 86.5632 40.1492L86.6966 40.0477C86.9114 38.7849 87.1138 37.5586 87.672 35.1427C87.9441 33.9854 88.2155 32.8394 88.4947 31.6869L88.451 31.5601C86.932 31.8415 86.526 31.9017 85.0649 32.1089L84.9539 32.1992C84.9392 32.3166 84.9238 32.4293 84.9097 32.542C84.6825 32.175 84.3532 31.8616 83.8451 31.6663C83.1954 31.4108 81.6693 31.74 80.3575 32.9344C79.4357 33.7872 78.9932 34.9556 78.7418 36.0762ZM81.9319 36.1453C82.2571 34.7532 82.6306 33.5753 83.5984 33.5753C84.2104 33.5753 84.5326 34.1401 84.4671 35.1031C84.4152 35.3433 84.3591 35.5965 84.2924 35.8827C84.1956 36.2963 84.0906 36.7065 83.9885 37.1172C83.8846 37.3981 83.7637 37.6631 83.6309 37.8395C83.3819 38.1924 82.7894 38.4113 82.4483 38.4113C82.3515 38.4113 81.7543 38.4113 81.7337 37.5309C81.729 37.0924 81.8192 36.641 81.9319 36.1453ZM98.5913 31.5488L98.4739 31.4148C96.9708 31.7193 96.6988 31.7677 95.3179 31.9542L95.2164 32.0557C95.2117 32.0722 95.2076 32.0976 95.2005 32.1206L95.1958 32.0976C94.1678 34.4693 94.1979 33.9577 93.3611 35.8248C93.3564 35.7398 93.3564 35.6867 93.3516 35.5964L93.1421 31.5488L93.0105 31.4148C91.4361 31.7193 91.3989 31.7677 89.9449 31.9542L89.8315 32.0557C89.8156 32.1041 89.8156 32.1572 89.8062 32.215L89.8156 32.2357C89.9974 33.1645 89.9537 32.9574 90.1361 34.4233C90.2211 35.1426 90.3344 35.8661 90.4193 36.5766C90.5627 37.7657 90.643 38.3511 90.8183 40.1657C89.8363 41.7862 89.6038 42.3993 88.6584 43.8215L88.6649 43.8356L87.9993 44.8884C87.9231 44.9994 87.8541 45.0755 87.7573 45.1079C87.6511 45.1605 87.513 45.1699 87.3212 45.1699H86.9524L86.4042 46.9934L88.2849 47.0258C89.389 47.0211 90.083 46.5048 90.4565 45.8108L91.6391 43.7843H91.6202L91.7448 43.6415C92.5402 41.929 98.5913 31.5488 98.5913 31.5488H98.5913ZM78.7417 55.4973H77.9439L80.8968 45.7302H81.8764L82.1874 44.7241L82.2175 45.8429C82.1809 46.5346 82.725 47.1477 84.1543 47.0462H85.8072L86.3761 45.1655H85.7541C85.3965 45.1655 85.2307 45.0752 85.2513 44.8816L85.2212 43.7433H82.1603V43.7492C81.1706 43.7698 78.2153 43.8442 77.6169 44.0035C76.8929 44.19 76.1298 44.7388 76.1298 44.7388L76.4296 43.7315H73.5664L72.9698 45.7302L69.9773 55.6466H69.3966L68.8271 57.5137H74.53L74.3388 58.1363H77.149L77.3355 57.5137H78.1238L78.7417 55.4973ZM76.4019 47.7148C75.9434 47.8417 75.0901 48.2264 75.0901 48.2264L75.8489 45.7302H78.1238L77.575 47.549C77.575 47.549 76.8722 47.5903 76.4019 47.7148ZM76.4456 51.2809C76.4456 51.2809 75.7309 51.3706 75.2606 51.4768C74.7973 51.6172 73.9287 52.0598 73.9287 52.0598L74.7124 49.4621H76.9991L76.4456 51.2809ZM75.1709 55.5203H72.8889L73.5504 53.328H75.8253L75.1709 55.5203ZM80.6664 49.4621H83.9558L83.4831 50.9929H80.1501L79.6497 52.6665H82.566L80.3578 55.7758C80.2032 56.0042 80.0645 56.085 79.9105 56.1494C79.7559 56.2278 79.5529 56.3199 79.318 56.3199H78.509L77.9531 58.1528H80.0692C81.1692 58.1528 81.8189 57.6524 82.2987 56.9956L83.8129 54.9231L84.1381 57.0275C84.2071 57.4217 84.4904 57.6524 84.6822 57.7421C84.894 57.8483 85.113 58.0307 85.4222 58.0578C85.7538 58.072 85.9934 58.0832 86.1528 58.0832H87.1926L87.8169 56.0319H87.4068C87.1713 56.0319 86.7659 55.9924 86.6969 55.9186C86.6278 55.8289 86.6278 55.6909 86.5906 55.4808L86.2608 53.3717H84.91L85.5024 52.6665H88.829L89.3406 50.9929H86.2608L86.7405 49.4622H89.8109L90.3804 47.5744H81.2264L80.6664 49.4621ZM52.8847 55.9465L53.6524 53.3925H56.8078L57.3844 51.4929H54.226L54.7082 49.9208H57.7945L58.3663 48.0814H50.644L50.084 49.9208H51.8384L51.3705 51.4929H49.6113L49.0283 53.425H50.7821L49.7589 56.804C49.6208 57.2513 49.8238 57.4218 49.9524 57.6296C50.084 57.832 50.2174 57.9659 50.5171 58.042C50.8264 58.1111 51.0382 58.1524 51.3262 58.1524H54.8834L55.5172 56.048L53.9404 56.2646C53.6359 56.2646 52.7926 56.228 52.8847 55.9465ZM53.2466 43.72L52.447 45.1652C52.2759 45.4809 52.1219 45.6768 51.9832 45.7671C51.861 45.8432 51.6191 45.8751 51.2685 45.8751H50.8513L50.2937 47.7239H51.6793C52.3455 47.7239 52.8572 47.4796 53.1015 47.3575C53.3641 47.217 53.4331 47.2973 53.6361 47.1014L54.1041 46.696H58.4308L59.005 44.771H55.8378L56.3908 43.72H53.2466ZM59.6343 55.9837C59.5605 55.8774 59.6137 55.6904 59.7264 55.3009L60.909 51.3866H65.1159C65.7291 51.3778 66.1716 51.3707 66.4596 51.35C66.7688 51.3176 67.1052 51.2072 67.4717 51.0089C67.8499 50.8012 68.0435 50.5823 68.207 50.3309C68.3893 50.0801 68.682 49.5313 68.9334 48.6851L70.4199 43.7316L66.0542 43.757C66.0542 43.757 64.7099 43.9553 64.118 44.1742C63.5208 44.4185 62.6675 45.1007 62.6675 45.1007L63.0617 43.7428H60.3649L56.5893 56.2645C56.4553 56.7508 56.3656 57.1037 56.345 57.3155C56.3379 57.5439 56.633 57.7699 56.8242 57.9405C57.0502 58.111 57.3842 58.0833 57.7046 58.111C58.0416 58.1364 58.5208 58.1523 59.1823 58.1523H61.2548L61.8909 56.0043L60.0356 56.1796C59.8373 56.1796 59.6939 56.0733 59.6343 55.9836V55.9837ZM61.672 48.7429H66.0908L65.8099 49.6234C65.7704 49.644 65.6759 49.5797 65.2263 49.6328H61.3999L61.672 48.7429ZM62.5572 45.7899H67.0132L66.6927 46.8504C66.6927 46.8504 64.5925 46.8297 64.2561 46.8917C62.7761 47.1478 61.9116 47.9386 61.9116 47.9386L62.5572 45.7899ZM65.9088 52.5718C65.8722 52.7034 65.8144 52.7836 65.7335 52.8438C65.6438 52.9016 65.4987 52.9223 65.2821 52.9223H64.6524L64.6896 51.85H62.0707L61.9644 57.0921C61.9603 57.4703 61.9969 57.6893 62.2737 57.8645C62.5504 58.0835 63.4031 58.1112 64.5509 58.1112H66.192L66.7845 56.1491L65.3558 56.2275L64.8808 56.2553C64.8159 56.2275 64.7539 56.2022 64.6849 56.1331C64.6247 56.0735 64.5232 56.1101 64.5397 55.7319L64.5509 54.3882L66.0492 54.3262C66.8583 54.3262 67.2041 54.063 67.4991 53.8122C67.7806 53.572 67.8727 53.2959 67.9789 52.9223L68.2303 51.7326H66.1714L65.9088 52.5718Z" fill="#FEFEFE"/>
<defs>
<linearGradient id="paint0_linear" x1="57" y1="5" x2="57" y2="80" gradientUnits="userSpaceOnUse">
<stop stop-color="#F5F5F5"/>
<stop offset="1" stop-color="white"/>
</linearGradient>
</defs>
</svg>
